<?xml version="1.0" encoding="UTF-8" standalone="no"?>
<svg
   xmlns:dc="http://purl.org/dc/elements/1.1/"
   xmlns:cc="http://creativecommons.org/ns#"
   xmlns:rdf="http://www.w3.org/1999/02/22-rdf-syntax-ns#"
   xmlns:svg="http://www.w3.org/2000/svg"
   xmlns="http://www.w3.org/2000/svg"
   version="1.1"
   id="svg2"
   viewBox="0 0 744.09448819 1052.3622047"
   height="297mm"
   width="210mm">
  <defs
     id="defs4" />
  <metadata
     id="metadata7">
    <rdf:RDF>
      <cc:Work
         rdf:about="">
        <dc:format>image/svg+xml</dc:format>
        <dc:type
           rdf:resource="http://purl.org/dc/dcmitype/StillImage" />
        <dc:title></dc:title>
      </cc:Work>
    </rdf:RDF>
  </metadata>
  <g
     id="layer1">
    <path
       d="m 48.632594,170.67231 c 3.183613,0.058 6.368271,0.0415 9.552261,0.0271 2.607438,0.0537 4.951676,-0.88039 7.327795,-1.81705 0.313223,-0.15172 0.632929,-0.29072 0.93967,-0.45515 1.359547,-0.72878 0.3548,-0.29856 1.695501,-0.95869 0.317459,-0.15631 1.271957,-0.61756 0.966814,-0.4384 -11.091756,6.5126 -10.336401,6.05373 -7.073501,3.97421 2.183852,-1.30095 4.222203,-2.74194 6.021067,-4.5385 1.664521,-1.82936 3.244738,-3.74681 4.689306,-5.75487 1.482378,-2.23068 2.507425,-4.71068 3.78255,-7.05706 1.409173,-2.24308 2.556244,-4.61682 3.68821,-7.0065 0.92139,-2.17992 2.193446,-4.17953 2.936831,-6.4306 0.745381,-2.18941 1.166414,-4.46381 1.681899,-6.71343 0.721731,-2.89275 1.364252,-5.80594 2.128931,-8.68781 0.554001,-1.81826 0.89498,-3.68311 1.068367,-5.57298 0.07371,-1.67931 0.400594,-3.33127 0.596792,-4.99791 0.237769,-1.884 0.09582,-3.78854 0.344034,-5.66808 0.406934,-1.52124 0.873076,-3.01344 1.108967,-4.57353 0.02618,-0.26927 0.05716,-0.53812 0.07854,-0.80781 0.02246,-0.28324 0.08398,-0.57142 0.03668,-0.85157 -0.01315,-0.0779 -0.164255,-0.18538 -0.09241,-0.21815 9.808486,-4.47344 9.626173,-7.615224 9.637394,-3.568366 -0.01674,1.560116 -0.01734,3.120336 -0.01842,4.680526 -0.120676,1.67336 0.162112,3.31635 0.393208,4.96515 0.19698,1.66418 0.20091,3.33684 0.46983,4.9919 0.23467,1.67838 0.67103,3.32227 1.16529,4.94074 0.60428,1.39678 1.57564,2.63438 2.62361,3.72951 0.97043,0.74469 2.04273,1.22445 3.23936,1.45287 1.50767,0.22305 3.03628,0.21897 4.55673,0.229 1.43451,0.26914 2.86649,0.51005 4.3235,0.60941 1.52683,-0.007 3.10691,0.28222 4.6091,-0.0499 3.34203,-1.02233 9.72181,-4.81692 -6.81047,4.11719 -0.26195,0.14156 0.47194,-0.364 0.69454,-0.56177 0.24317,-0.21603 0.46761,-0.45227 0.70141,-0.67841 1.30516,-1.42809 2.24771,-3.12665 3.40256,-4.675 1.0771,-1.34607 1.88726,-2.84956 2.61882,-4.4015 0.85147,-1.68736 1.68901,-3.37104 2.65591,-4.9959 0.79765,-1.3833 1.33155,-2.90635 1.79861,-4.42856 0.30835,-1.37305 0.48103,-2.76243 0.79699,-4.13518 0.0431,-0.23809 0.0912,-0.47532 0.12924,-0.71426 0.0774,-0.48594 0.16227,-2.02243 0.21699,-2.05129 9.72768,-5.130625 9.41394,-7.934473 9.54608,-3.732547 -0.22513,2.705427 -0.47863,5.405087 -0.60293,8.118337 -0.13241,3.0968 -0.12166,6.19707 -0.16348,9.29575 -0.13305,4.40854 0.0109,8.80515 0.29029,13.20412 0.0586,2.98825 0.36562,5.90125 1.02825,8.81046 0.50781,2.64616 0.80955,5.33506 1.09433,8.01435 0.14738,3.28057 0.86085,6.47263 1.55066,9.6692 0.65312,3.42414 1.11538,6.88163 1.39445,10.35566 0.24729,3.96757 0.90397,7.87172 1.54004,11.78855 0.44465,3.48571 1.09276,6.93768 1.73831,10.38991 0.29282,2.92836 1.01424,5.77851 1.47196,8.68178 0.36936,3.01387 0.63467,6.04235 0.90883,9.06713 0.28374,2.85212 0.37596,5.71731 0.41538,8.58168 0.0219,1.77123 0.0119,0.90344 0.0303,2.60336 0,0 -9.39434,4.79272 -9.39434,4.79272 l 0,0 c 0.001,-1.70217 0.003,-0.83404 -0.007,-2.60439 -0.0434,-2.84296 -0.10175,-5.68738 -0.35594,-8.52108 -0.28017,-3.00454 -0.57579,-6.00649 -0.88055,-9.00774 -0.44443,-2.89867 -1.22778,-5.72655 -1.47554,-8.65398 -0.58663,-3.47547 -1.26269,-6.93649 -1.68157,-10.4386 -0.63553,-3.94322 -1.33171,-7.86487 -1.58336,-11.8592 -0.28301,-3.42796 -0.76356,-6.83384 -1.36493,-10.22008 -0.67307,-3.23177 -1.49202,-6.43638 -1.61779,-9.75414 -0.28901,-2.63739 -0.62362,-5.27637 -1.07819,-7.88917 -0.28169,-1.28667 -0.64502,-2.59837 -0.77722,-3.91136 -0.17019,-1.69044 -0.0374,-3.41258 -0.22722,-5.10299 -0.23606,-4.41161 -0.41794,-8.82236 -0.35675,-13.24188 -0.0254,-3.10784 0.0115,-6.21589 0.11707,-9.3222 0.11912,-2.6683 0.26543,-5.33407 0.53961,-7.99166 -0.15985,-4.208034 -0.23513,-1.10795 9.41667,-5.872072 0.17783,-0.08778 -0.04,0.394628 -0.057,0.59221 -0.066,0.765873 -0.116,1.533995 -0.24843,2.292549 -0.24895,1.406803 -0.63892,2.773853 -0.77229,4.204433 -0.39895,1.6159 -0.99961,3.19118 -1.71073,4.69391 -0.93999,1.62062 -1.86067,3.22518 -2.68286,4.90913 -0.76629,1.58023 -1.43003,3.20734 -2.52839,4.6017 -0.55977,0.71239 -1.2082,1.43736 -1.70214,2.19427 -0.55982,0.85788 -0.91746,1.86187 -1.6605,2.60384 -3.39891,3.65937 -7.91878,6.73828 -12.87661,7.52974 -1.5761,0.0486 -3.15493,-0.0226 -4.72727,-0.13329 -1.43016,-0.14413 -2.83487,-0.45908 -4.26913,-0.55273 -1.57745,-0.0252 -3.16886,-0.0494 -4.712386,-0.41502 -1.325633,-0.38703 -2.559904,-1.03003 -3.576865,-1.9776 -1.111515,-1.25043 -2.185212,-2.60516 -2.85018,-4.14837 -0.503141,-1.661 -0.969644,-3.34149 -1.232843,-5.05924 -0.289654,-1.66714 -0.337509,-3.33793 -0.485865,-5.02207 -0.22072,-1.69331 -0.567963,-3.3756 -0.461044,-5.09271 0.0043,-1.55307 0.01441,-3.10626 -0.0048,-4.65925 -0.04074,-4.190205 -0.165242,-0.23335 9.61351,-5.645216 0.05905,-0.03268 -0.07052,-0.200249 -0.124459,-0.159689 -0.03144,0.02364 -0.104674,0.830382 -0.107937,0.87061 -0.0228,0.281111 -0.03766,0.56281 -0.05649,0.844215 -0.151926,1.5986 -0.523447,3.14466 -1.089416,4.64988 -0.495638,1.80327 -0.121334,3.72982 -0.366766,5.58006 -0.173185,1.66345 -0.533523,3.30402 -0.612216,4.97311 -0.146706,1.95851 -0.454744,3.89718 -1.025541,5.78127 -0.868739,2.84524 -1.464909,5.76651 -2.192251,8.64902 -0.487508,2.26797 -0.838011,4.56618 -1.602435,6.76349 -0.205361,0.74141 -0.396073,1.52783 -0.703041,2.23702 -0.64357,1.48685 -1.685006,2.79526 -2.194356,4.35018 -1.145886,2.39517 -2.17551,4.84554 -3.666674,7.05531 -0.4069,0.75911 -0.865664,1.49052 -1.251771,2.26042 -0.822715,1.6405 -1.470326,3.37944 -2.502324,4.91351 -1.392013,2.07163 -2.985497,3.97638 -4.563411,5.90702 -0.554468,0.55158 -1.068187,1.14385 -1.634036,1.68376 -1.282986,1.22415 -2.839573,2.09538 -4.323994,3.04387 -4.548593,3.26814 -9.58502,5.90402 -14.668966,8.2507 -2.432525,0.91145 -4.895808,1.57174 -7.524001,1.48042 -3.208878,-0.0147 -6.418377,-0.0299 -9.6269,0.0271 0,0 8.584395,-6.23693 8.584395,-6.23693 z"
       id="path3336"
       style="fill:#000000;fill-opacity:1;fill-rule:nonzero;stroke:none;stroke-width:1px;stroke-linecap:butt;stroke-linejoin:miter;stroke-opacity:1" />
    <path
       d="m 113.59662,182.42415 c 26.07481,-15.02886 4.08138,-2.34943 2.921,-1.68996 -0.72392,0.41141 1.43462,-0.84573 2.14882,-1.27379 2.53608,-1.52002 4.94716,-3.17539 7.37011,-4.86858 4.19325,-3.16256 8.22565,-6.52893 12.0336,-10.14557 3.66769,-3.40687 6.70699,-7.3919 9.82331,-11.28691 2.05666,-2.74747 4.04426,-5.53937 5.66538,-8.56776 1.04278,-2.11475 1.87995,-4.32412 2.47652,-6.60399 0.78166,-2.66713 1.54599,-5.33982 2.14093,-8.05558 0.55875,-2.81513 0.64184,-5.69217 0.70423,-8.55248 0.11331,-4.60938 0.0699,-9.22105 0.071,-13.83144 -0.0122,-4.07183 -0.0252,-8.143715 -0.0485,-12.215501 -0.0147,-3.16971 4e-5,-6.339396 -0.0194,-9.50909 0.001,-2.428492 -0.0152,-4.856937 -0.0232,-7.28541 -0.0148,-4.444608 -0.97807,-3.094196 9.40915,-4.98955 0.60341,-0.110104 -0.0252,1.226489 -0.034,1.839797 -0.0189,1.317228 -0.0356,3.579131 -0.0462,4.848093 -0.23093,5.871038 0.12914,11.709993 0.60604,17.556466 0.25033,6.658285 1.41431,13.204845 3.00316,19.659505 2.41009,7.63014 4.41089,15.42158 7.39803,22.85842 0.61488,1.53082 1.31137,3.02758 1.96706,4.54136 3.64299,7.84073 8.03241,15.30279 13.10059,22.29965 3.9848,5.0805 8.29421,10.10629 13.63373,13.82687 0.75784,0.52807 1.57233,0.9698 2.3585,1.4547 2.73011,1.56079 5.67688,2.48276 8.80538,2.6511 0.32241,0.004 0.64481,0.008 0.96722,0.0114 0,0 -8.58391,6.18936 -8.58391,6.18936 l 0,0 c -0.33002,-0.0198 -0.66003,-0.0395 -0.99005,-0.0593 -3.18786,-0.37096 -6.1577,-1.51762 -8.89338,-3.20218 -0.79025,-0.52343 -1.60861,-1.00672 -2.37076,-1.57029 -5.28324,-3.90664 -9.60348,-9.02291 -13.65692,-14.13645 -0.84348,-1.14848 -1.72404,-2.27062 -2.53043,-3.44544 -4.1213,-6.00433 -7.44184,-12.55116 -10.59569,-19.09584 -0.66752,-1.5289 -1.38029,-3.03883 -2.00256,-4.58669 -2.9991,-7.46012 -4.98,-15.28474 -7.56879,-22.88608 -1.69196,-6.47214 -2.94784,-13.04788 -3.1951,-19.75179 -0.47769,-5.865666 -0.87461,-11.717391 -0.68782,-17.608972 -0.0105,-1.249436 -0.0274,-3.501958 -0.0462,-4.800972 -0.009,-0.601755 -0.4956,-1.418978 -0.034,-1.805137 10.84209,-9.070273 9.40168,-9.36194 9.40912,-4.598833 -0.008,2.436389 -0.0245,4.872751 -0.0234,7.309159 -0.0194,3.175873 -0.005,6.35173 -0.0178,9.527625 -0.0204,4.084904 -0.0279,8.169945 -0.0305,12.25489 0.011,4.59979 -0.004,9.19974 0.0359,13.79939 -0.041,2.91464 -0.0866,5.83991 -0.58453,8.72084 -0.57526,2.72338 -1.29736,5.41269 -2.11734,8.07251 -0.52246,2.37025 -1.36051,4.64368 -2.38185,6.84555 -1.60085,3.1346 -3.63027,5.97613 -5.70577,8.81288 -3.16951,3.86636 -6.12968,7.93458 -9.75412,11.40215 -3.83008,3.67519 -7.88863,7.08395 -12.08535,10.33426 -1.64619,1.16007 -3.25649,2.37268 -4.9371,3.48229 -4.78596,3.15989 -10.20116,6.05328 -15.0351,8.84102 -2.61746,1.50948 5.22614,-3.03411 7.83921,-4.55117 0,0 -9.8881,3.83545 -9.8881,3.83545 z"
       id="path3338"
       style="fill:#000000;fill-opacity:1;fill-rule:nonzero;stroke:none;stroke-width:1px;stroke-linecap:butt;stroke-linejoin:miter;stroke-opacity:1" />
    <path
       d="m 148.63259,130.67231 c 2.63217,0.0379 5.26481,0.0279 7.89715,0.0184 1.93293,-0.0127 3.86587,-0.0109 5.79882,-0.0138 2.83212,-0.3929 5.6923,-0.4632 8.5455,-0.56616 2.96165,-0.0918 5.9247,-0.1264 8.88763,-0.13793 1.37633,-0.006 2.75266,-0.01 4.129,-0.0131 0,0 -8.57077,6.2259 -8.57077,6.2259 l 0,0 c -1.36259,-0.006 -2.72517,-0.012 -4.08777,-0.0113 -2.93722,0.008 -5.87499,0.0196 -8.81065,0.12692 -2.89636,0.11629 -5.77819,0.36145 -8.66481,0.60351 -1.92026,-0.003 -3.84052,-0.001 -5.76075,-0.0138 -2.64921,-0.01 -5.2987,-0.019 -7.94774,0.0184 0,0 8.58439,-6.23693 8.58439,-6.23693 z"
       id="path3340"
       style="fill:#000000;fill-opacity:1;fill-rule:nonzero;stroke:none;stroke-width:1px;stroke-linecap:butt;stroke-linejoin:miter;stroke-opacity:1" />
    <path
       d="m 197.28482,125.67569 c 4.20784,0.2582 8.27941,-0.84532 12.27662,-2.01349 6.33074,-1.21938 12.4117,-3.2794 18.40702,-5.60927 0.88185,-0.381 1.76833,-0.75147 2.64556,-1.14301 2.53582,-1.13184 2.10141,-0.93985 4.47329,-2.27141 0.68815,-0.38632 2.74852,-1.55257 2.0607,-1.16564 -7.61048,4.28127 -9.28971,5.49055 -5.25102,2.75446 3.53734,-2.45563 6.68744,-5.36763 9.41756,-8.68879 0.93643,-1.42331 2.09961,-2.73557 2.8117,-4.29903 0.362,-0.79479 0.5482,-1.52797 0.7975,-2.36333 0.83892,-3.305043 0.96126,-6.728272 1.07504,-10.119117 0.0374,-3.220474 -0.37223,-6.423361 -1.01772,-9.572642 -0.27733,-0.78071 -0.26034,-2.00742 -0.90562,-2.64629 -0.57956,-0.573804 -0.93032,0.69532 -0.90935,0.685183 2.77673,-1.342323 5.39596,-2.988636 8.09394,-4.482954 -2.88938,3.853276 -4.2989,8.585417 -5.94257,13.060913 -1.17412,3.405635 -1.77635,6.979046 -2.29599,10.534529 -0.38709,2.969168 -0.44688,5.966448 -0.48383,8.956338 -0.0245,3.07258 -0.005,6.14517 -0.0125,9.2178 0.0312,3.90521 -0.0313,7.80991 -0.0482,11.71505 -0.004,4.91989 0.007,9.83974 0.0158,14.75962 0.0163,4.04878 0.0278,8.09757 0.0145,12.14638 0.0334,3.94701 -0.50932,7.81903 -1.17624,11.69429 -0.76425,3.75484 -1.51735,7.51084 -2.3753,11.24567 -0.85575,3.28816 -1.70509,6.58651 -3.04623,9.71366 -1.32501,3.12784 -3.23396,5.87277 -5.46851,8.40599 -2.56444,2.61646 -5.45198,4.93989 -8.51975,6.94234 -7.19007,4.17621 -9.62881,7.21886 -16.84539,6.1697 -3.48929,-0.66668 -5.5342,-2.11881 -8.01928,-4.58194 -3.92822,-3.31925 -6.37154,-7.78036 -8.60668,-12.32238 -2.16181,-4.92646 -3.7969,-10.05155 -4.77413,-15.33928 -0.47482,-3.03235 -0.53807,-6.10398 -0.57228,-9.16642 0.13995,-5.57148 5.96956,-8.01414 11.40033,-9.20505 2.6378,-0.25095 5.30181,-0.18679 7.94908,-0.15401 5.10543,0.005 10.17284,0.96946 15.13062,2.11839 5.39164,1.35683 10.62099,3.30112 15.76886,5.38394 3.92355,1.70024 7.77946,3.6349 11.35879,5.98681 2.44319,1.60537 3.54545,2.54339 5.86483,4.35331 6.21303,5.49373 12.14541,11.29161 18.23889,16.91444 5.84102,5.1893 11.93952,10.09954 18.18422,14.79459 3.61105,2.54515 7.36959,4.8734 11.18781,7.0924 0,0 -8.77909,5.6806 -8.77909,5.6806 l 0,0 c -3.75812,-2.32391 -7.46936,-4.72511 -11.05804,-7.30525 -6.24991,-4.72234 -12.29427,-9.73297 -18.14755,-14.93712 -6.07515,-5.61159 -12.02861,-11.358 -18.26679,-16.79139 -5.295,-4.04282 -10.91365,-7.60853 -17.14657,-10.04818 -5.14271,-2.00328 -10.33677,-3.93499 -15.71003,-5.23133 -4.94771,-1.10534 -9.9982,-1.97041 -15.08597,-1.865 -2.61334,0.0301 -5.31979,-0.14581 -7.86565,0.52526 -3.60306,1.74727 -0.59915,0.31339 7.74616,-4.67942 0.19498,-0.11665 -0.42848,0.17636 -0.59728,0.32844 -0.61335,0.5526 -0.66973,1.49894 -0.76882,2.24538 -0.025,3.023 -0.006,6.05528 0.39847,9.05718 0.82897,5.22884 2.32451,10.30983 4.4884,15.15003 2.23709,4.4222 4.70134,8.71671 8.5712,11.93239 2.3477,2.19835 4.46948,3.53887 7.71095,3.96468 1.30337,0.10882 2.5702,0.16669 3.86623,-0.084 3.56835,-0.69035 9.19631,-4.92186 -5.42617,3.81205 3.15301,-1.85327 6.01477,-4.1963 8.68068,-6.68776 2.24398,-2.4351 4.23496,-5.03478 5.57009,-8.09416 1.43383,-3.05003 2.25572,-6.31028 3.17561,-9.5452 0.83961,-3.71982 1.61067,-7.44976 2.37688,-11.18588 0.3136,-1.79272 0.73882,-3.60222 0.94465,-5.41077 0.23142,-2.03341 0.19696,-4.099 0.34267,-6.1382 -0.0133,-4.05377 -0.002,-8.10753 0.0147,-12.16129 0.009,-4.92503 0.02,-9.85002 0.0148,-14.77505 -0.0181,-3.88594 -0.0812,-7.77132 -0.062,-11.65736 -0.0161,-3.07421 -0.0193,-6.14845 -0.007,-9.22267 0.0287,-3.03114 0.0654,-6.06674 0.42481,-9.08103 0.50936,-3.634168 1.16994,-7.276988 2.28746,-10.776224 1.69994,-4.568086 3.30711,-9.188601 5.5986,-13.504751 3.32601,-2.020493 6.55485,-4.210381 9.97803,-6.061478 0.33599,-0.181688 0.78444,-0.07953 1.14496,0.04668 1.25707,0.440078 1.36965,2.525651 1.67106,3.534176 0.66303,3.230753 1.01915,6.523438 1.06637,9.821951 -0.0892,3.455409 -0.21352,6.924192 -0.89331,10.324234 -0.23597,0.844687 -0.39339,1.713974 -0.69361,2.538019 -0.61573,1.690043 -1.88941,3.012563 -2.80216,4.529673 -2.69395,3.42343 -5.81882,6.43129 -9.35301,8.99021 -5.09609,3.56973 -1.70366,1.26264 -12.53714,7.59034 -2.93786,1.71596 -6.01126,3.17402 -9.18716,4.39402 -3.03594,1.14308 -6.08353,2.28382 -9.1957,3.20751 -2.87971,0.8547 -3.52176,0.91395 -6.3911,1.62099 -0.98019,0.24153 -1.95552,0.50233 -2.93328,0.7535 -4.13963,1.14761 -8.3127,2.09497 -12.64306,1.92466 0,0 8.5751,-6.23017 8.5751,-6.23017 z"
       id="path3342"
       style="fill:#000000;fill-opacity:1;fill-rule:nonzero;stroke:none;stroke-width:1px;stroke-linecap:butt;stroke-linejoin:miter;stroke-opacity:1" />
  </g>
</svg>
